<svg width="32" height="25" viewBox="0 0 32 25" fill="none" xmlns="http://www.w3.org/2000/svg">
<path opacity="0.3" d="M15.763 16.0333C16.7887 16.0333 17.7724 15.6601 18.4976 14.9957C19.2229 14.3314 19.6304 13.4304 19.6304 12.4909C19.6304 12.3871 19.6252 12.2843 19.6155 12.1828L15.4266 16.0197C15.5375 16.0286 15.6494 16.0333 15.763 16.0333ZM28.5641 1.53335L27.089 0.183427C27.0372 0.136011 26.9669 0.109375 26.8937 0.109375C26.8204 0.109375 26.7502 0.136011 26.6984 0.183427L22.9235 3.64205C20.8411 2.66724 18.5003 2.17984 15.9011 2.17984C9.26433 2.17984 4.31266 5.3459 1.04608 11.678C0.914776 11.9327 0.84668 12.2108 0.84668 12.4924C0.84668 12.7741 0.914776 13.0522 1.04608 13.3069C2.35133 15.8252 3.92304 17.8436 5.76121 19.3622L2.10823 22.707C2.05647 22.7544 2.02739 22.8188 2.02739 22.8859C2.02739 22.9529 2.05647 23.0173 2.10823 23.0647L3.58234 24.415C3.63414 24.4624 3.70438 24.489 3.77761 24.489C3.85084 24.489 3.92108 24.4624 3.97288 24.415L28.5641 1.89139C28.5898 1.86789 28.6102 1.83998 28.6241 1.80926C28.638 1.77855 28.6451 1.74562 28.6451 1.71237C28.6451 1.67912 28.638 1.64619 28.6241 1.61547C28.6102 1.58476 28.5898 1.55685 28.5641 1.53335ZM9.6856 12.4909C9.6855 11.5294 9.9573 10.5842 10.4745 9.74755C10.9917 8.91086 11.7367 8.21115 12.6369 7.71657C13.5371 7.222 14.5618 6.94943 15.6112 6.92541C16.6605 6.90139 17.6988 7.12675 18.6248 7.57953L16.946 9.11733C16.2689 8.91875 15.5452 8.89483 14.8543 9.0482C14.1633 9.20158 13.5319 9.52631 13.0291 9.98678C12.5264 10.4472 12.1719 11.0256 12.0045 11.6585C11.837 12.2914 11.8631 12.9543 12.0799 13.5745L10.4011 15.1123C9.92994 14.306 9.68413 13.4054 9.6856 12.4909Z" fill="black"/>
<path opacity="0.3" d="M31.317 11.8313C30.0758 9.53097 28.5984 7.65524 26.8849 6.2041L21.8023 10.677C22.2307 11.6625 22.3257 12.7362 22.0757 13.7682C21.8257 14.8002 21.2415 15.7464 20.3936 16.4925C19.5457 17.2387 18.4704 17.7528 17.2976 17.9728C16.1248 18.1927 14.9047 18.1092 13.7848 17.7321L9.47363 21.5258C11.4737 22.3402 13.6983 22.7474 16.1473 22.7474C22.9247 22.7474 27.9812 19.6414 31.317 13.4293C31.4511 13.1795 31.5207 12.9066 31.5207 12.6303C31.5207 12.354 31.4511 12.0811 31.317 11.8313Z" fill="black"/>
</svg>
