<svg width="350" height="232" viewBox="0 0 350 232" fill="none" xmlns="http://www.w3.org/2000/svg">
<path opacity="0.3" d="M15.91 158.339C19.2098 168.596 23.8639 178.616 29.7447 187.368C40.5427 203.434 57.4502 215.691 77.258 217.058C84.1394 217.532 91.0775 216.965 97.8562 215.742C126.529 210.576 153.97 200.377 182.213 193.412C210.179 186.516 237.624 187.794 266.136 185.889C281.392 184.868 299.141 181.16 311.159 170.962C322.903 160.997 331.654 146.598 336.204 131.642C348.533 91.1181 330.119 42.4982 293.315 22.4944C273.512 11.731 248.731 15.1731 228.65 22.6156C215.934 27.3285 203.809 33.8356 190.214 35.6081C169.909 38.2546 149.71 30.8614 129.488 27.2C96.1263 21.1565 58.7523 26.6717 34.9892 51.3207C11.0106 76.1851 5.62407 113.488 12.635 146.113C13.5092 150.182 14.6032 154.28 15.91 158.339Z" stroke="#F6BB00" stroke-width="4.99957" stroke-miterlimit="10"/>
<path d="M180.07 156.297V229.96" stroke="#F8FAFB" stroke-width="4.99957" stroke-miterlimit="10"/>
<path d="M190.9 227.966H169.242V231.954H190.9V227.966Z" fill="#1F3C88"/>
<path d="M241.369 154.147H118.771V158.445H241.369V154.147Z" fill="#F8FAFB"/>
<path d="M77.6729 205.096C77.6729 205.096 82.9968 213.225 93.1918 214.419L89.896 203.487L77.6729 205.096Z" fill="#102048"/>
<path d="M91.0739 207.145L82.625 201.12L78.9917 211.155L86.4346 217.106L91.0739 207.145Z" fill="#F9B384"/>
<path d="M70.9238 217.999L86.7126 231.643C87.1369 232.01 87.7809 231.602 87.6263 231.065L84.5841 220.516L87.1667 215.778L79.0554 211.083C76.3874 212.716 73.9593 214.707 71.843 217.002L70.9238 217.999Z" fill="#3748AC"/>
<path d="M84.5275 158.589C107.412 160.189 114.002 158.85 117.062 167.977C120.948 179.57 93.1932 214.418 93.1932 214.418C93.1932 214.418 88.2191 207.161 77.6743 205.094L92.0788 174.704L84.5275 158.589Z" fill="#1F3C88"/>
<path d="M55.5542 182.026V229.361" stroke="#F8FAFB" stroke-width="4.99957" stroke-miterlimit="10"/>
<path d="M62.4021 154.356C55.8105 154.356 52.6097 136.229 44.0645 138.805C20.9305 145.781 37.9204 206.87 84.4651 179.462L62.4021 154.356Z" fill="#F8FAFB"/>
<path d="M44.7476 231.886C44.7476 229.099 49.5861 226.838 55.554 226.838C61.5219 226.838 66.3604 229.099 66.3604 231.886H44.7476Z" fill="#1F3C88"/>
<path d="M129.281 128.436C132.28 129.999 134.333 132.32 134.905 135.828L129.115 136.021L129.281 128.436Z" fill="#6F3428"/>
<path d="M132.631 125.931C132.631 125.931 133.439 124.695 135.967 124.548C138.325 124.411 140.311 124.541 142.312 123.668C142.604 123.54 142.899 123.423 143.208 123.344L144.264 123.072L144.348 125.023C144.348 125.023 141.462 126.679 139.742 126.389C139.742 126.389 140.471 127.543 146.713 127.379C146.713 127.379 148.859 126.52 149.998 126.765C150.631 126.901 151.066 127.504 151.066 127.504L146.291 129.85L134.514 129.685L132.631 125.931Z" fill="#E28B6D"/>
<path d="M149.028 123.249L148.178 128.923L146.291 129.851L141.753 129.788L146.448 127.518C146.448 127.517 147.348 122.999 149.028 123.249Z" fill="#E28B6D"/>
<path d="M144.934 122.382L146.149 127.677L144.422 129.824L140.258 130.741L143.938 127.357C143.936 127.358 143.364 123.028 144.934 122.382Z" fill="#F9B384"/>
<path d="M126.894 130.302L132.632 125.931L138.827 128.082L141.446 127.58C141.446 127.58 140.325 124.03 141.897 123.204C141.897 123.204 143.253 125.04 143.58 127.693C143.638 128.168 141.226 130.504 141.226 130.504C140.608 130.902 135.578 131.106 135.578 131.106L130.286 137.342L126.894 130.302Z" fill="#F9B384"/>
<path d="M108.917 141.206C109.088 141.352 129.281 128.436 129.281 128.436C129.927 132.095 132.113 134.255 134.905 135.828L122.835 146.814L108.917 141.206Z" fill="#AE5140"/>
<path d="M107.788 217.032C107.788 217.032 117.73 220.532 126.665 213.951L115.18 208.484L107.788 217.032Z" fill="#102048"/>
<path d="M119.463 210.587L109.105 211.549L113.005 221.486L122.556 221.123L119.463 210.587Z" fill="#F9B384"/>
<path d="M111.601 231.904H132.386C132.948 231.904 133.165 231.177 132.693 230.873L123.419 224.9L122.558 221.085L113.007 221.387C112.076 224.355 111.602 227.445 111.602 230.553V231.904H111.601Z" fill="#3748AC"/>
<path d="M98.2975 107.806L97.7945 112.785L96.958 121.01L85.9414 118.459C85.9414 118.459 88.5851 111.137 89.6642 108.289C89.9069 107.633 90.0709 107.218 90.1048 107.179L91.5907 107.291L98.2975 107.806Z" fill="#F9B384"/>
<path d="M98.2975 107.806L97.7132 113.579C94.6303 113.342 91.5203 111.912 89.6914 108.214L91.5908 107.29L98.2975 107.806Z" fill="#E28B6D"/>
<path d="M98.7203 110.279C91.9403 112.012 87.2007 105.862 87.2007 105.862L86.737 101.897L86.6747 101.538L85.6294 95.1921L90.5222 89.0249L101.714 91.7883C101.719 91.7937 101.714 91.7937 101.714 91.7937C102.217 92.9763 102.652 94.1938 103.007 95.41C103.187 96.033 103.351 96.6599 103.487 97.2774C104.828 103.31 103.924 108.95 98.7203 110.279Z" fill="#F9B384"/>
<path d="M103.071 95.753C98.9972 88.2175 94.4379 90.2531 91.58 92.5348C87.5522 95.753 88.1501 101.713 88.1501 101.713L86.7374 101.899L84.7377 102.157L82.9468 102.807C78.336 100.295 79.8395 92.816 82.3598 90.0741C86.1789 85.9142 92.8856 84.3052 97.5574 87.1533C98.0889 87.4735 98.5634 87.8314 98.9986 88.2189C100.236 89.3059 101.105 90.5907 101.715 91.7908V91.7962C102.523 93.3663 102.879 94.7843 103.009 95.4126C103.055 95.6292 103.071 95.753 103.071 95.753Z" fill="#102048"/>
<path d="M103.071 95.7532C100.625 90.0084 95.2172 89.7959 92.5057 92.2485C89.0148 95.4074 93.6717 99.8781 88.1498 101.712L86.6748 101.538L83.985 101.218L82.8042 93.6046L87.1371 89.0236L92.3634 87.1562L98.9956 88.2164C100.233 89.3035 101.102 90.5883 101.712 91.7884V91.7938C102.52 93.3638 102.876 94.7818 103.006 95.4101C103.055 95.6294 103.071 95.7532 103.071 95.7532Z" fill="#102048"/>
<path d="M84.9302 87.4437C84.4855 85.9544 83.5935 84.488 82.1591 83.8677C81.5992 83.6269 80.9525 83.5287 80.3777 83.7319C79.8503 83.9189 79.8354 84.6978 79.3541 84.9077C79.0627 85.0342 78.9257 84.8593 78.6532 84.7638C78.2397 84.6185 77.7951 84.5969 77.3802 84.7543C77.0426 84.8821 76.7417 85.131 76.5478 85.4351C76.4122 85.649 76.3919 85.941 76.2265 86.136C76.0109 86.3917 75.7737 86.3647 75.4808 86.4616C74.8559 86.6688 74.361 87.1747 74.1943 87.8124C74.1143 88.1205 74.1116 88.4366 74.1739 88.7474C74.2566 89.1551 74.6674 89.4793 74.5847 89.9152C74.4505 90.6161 73.4988 90.8166 73.3144 91.5794C73.2127 91.9965 73.2886 92.4485 73.5123 92.8145C73.7293 93.1683 74.1305 93.397 74.1794 93.8423C74.2254 94.2648 73.9177 94.6321 73.732 95.0142C73.6222 95.2402 73.5517 95.5079 73.652 95.738C73.7455 95.9559 73.9706 96.0905 74.197 96.1658C74.8599 96.3824 75.268 96.4645 75.7181 97.0349C76.0882 97.5031 76.3702 98.0534 76.9382 98.3171C77.814 98.7234 78.9081 98.5296 79.7948 98.2417C80.9281 97.8744 81.9165 97.1681 82.837 96.4174C83.4267 95.9357 84.0043 95.4232 84.4245 94.7895C85.1173 93.7441 85.5403 92.049 85.2244 90.8072C85.1038 90.3323 84.7811 90.0834 84.8719 89.5681C85.0129 88.7743 85.1743 88.2617 84.9302 87.4437Z" fill="#102048"/>
<path d="M92.4364 134.058L100.119 142.16C99.2489 143.366 98.1982 144.93 97.1367 146.814C95.3282 150.004 93.4763 154.096 92.3347 158.851L57.8208 157.696C60.6393 148.9 69.6969 121.472 86.4306 115.491C94.024 112.772 100.023 117.441 104.318 123.357L90.1547 131.649L92.4364 134.058Z" fill="#FC6B58"/>
<path d="M125.713 148.78L141.244 145.874L149.019 150.642C149.721 151.071 149.415 152.144 148.591 152.144L139.284 151.846L129.711 153.698L125.713 148.78Z" fill="#F9B384"/>
<path d="M133.475 144.78C134.483 148.782 133.96 151.141 132.363 154.146L113.211 151.536C110.086 151.11 107.201 149.634 105.04 147.352L100.12 142.159L90.1538 131.646L104.317 123.354C109.486 130.474 114.348 137.624 114.348 137.624L133.475 144.78Z" fill="#FC6B58"/>
<path d="M93.6095 179.254C93.6095 179.254 70.5351 181.799 63.7199 176.528C57.489 171.708 56.9399 161.811 57.8198 157.697C57.8198 157.697 70.8239 152.597 98.7396 160.198C105.459 162.028 110.869 166.969 113.335 173.435C117.674 184.805 124.401 203.254 126.663 213.951C126.663 213.951 111.871 212.979 107.786 217.032L93.6095 179.254Z" fill="#708CD5"/>
<path d="M155.527 151.925H139.339V154.148H155.527V151.925Z" fill="white"/>
<path d="M156.514 154.148H153.173L165.979 122.638H169.32L156.514 154.148Z" fill="#102048"/>
<path d="M100.121 142.159C99.2505 143.364 98.1998 144.929 97.1383 146.813C95.4938 142.894 93.3138 137.433 92.438 134.057L100.121 142.159Z" fill="#AE5140"/>
<path d="M92.9752 102.42C91.4066 102.379 89.8855 102.123 88.908 101.913C88.4227 101.81 87.9211 101.958 87.5781 102.314L85.6299 104.344L87.1998 105.863C87.1998 105.863 89.3296 108.254 92.3922 109.644C93.9933 107.577 94.0543 104.708 92.9752 102.42Z" stroke="white" stroke-width="4.99957" stroke-miterlimit="10"/>
<path d="M103.74 98.5513C103.386 101.586 100.096 103.358 93.1054 102.365C92.9997 102.351 92.9183 102.452 92.9617 102.55C93.9433 104.805 93.9433 107.643 92.395 109.644C94.6293 110.658 97.3583 111.141 100.124 109.772C105.845 106.936 103.74 98.5513 103.74 98.5513Z" fill="white" stroke="white" stroke-width="4.99957" stroke-miterlimit="10"/>
<path d="M88.3263 102.804C88.1189 101.498 87.2078 100.36 85.924 100.004C84.3188 99.5605 82.616 100.295 82.3937 102.047C82.0547 104.723 84.4367 107.457 88.7533 105.494L88.3263 102.804Z" fill="#F9B384"/>
<path d="M97.4138 99.6342C97.5426 100.146 97.342 100.635 96.9638 100.73C96.5856 100.824 96.1736 100.486 96.0448 99.976C95.9161 99.4646 96.1167 98.9748 96.4948 98.8806C96.873 98.7864 97.2837 99.1228 97.4138 99.6342Z" fill="#102048"/>
<path d="M101.216 99.3533C101.588 99.2953 101.825 98.8411 101.746 98.3389C101.666 97.8367 101.3 97.4766 100.928 97.5346C100.556 97.5926 100.319 98.0468 100.399 98.549C100.478 99.0512 100.844 99.4113 101.216 99.3533Z" fill="#102048"/>
<path d="M94.1963 99.5638C94.2098 99.1789 94.3291 98.8129 94.542 98.4818C94.7508 98.1481 95.0829 97.8736 95.4639 97.7242C95.8489 97.5829 96.2584 97.5641 96.638 97.6219C96.8264 97.6542 97.0081 97.7134 97.1857 97.7673C97.3552 97.8494 97.5246 97.9207 97.6846 98.0122L97.6073 98.2181C97.4284 98.2046 97.2589 98.171 97.0894 98.1481C96.92 98.1387 96.7519 98.1185 96.5892 98.1131C96.2624 98.1104 95.9506 98.1468 95.6646 98.245C95.3812 98.3486 95.1385 98.533 94.923 98.7631C94.7142 98.9973 94.5461 99.296 94.4119 99.5988L94.1963 99.5638Z" fill="#102048"/>
<path d="M99.5503 97.2856C99.6316 97.0151 99.7862 96.7836 99.9923 96.5885C100.196 96.3907 100.464 96.2561 100.745 96.1821C101.028 96.1188 101.324 96.1202 101.593 96.1915C101.729 96.2224 101.855 96.283 101.982 96.3274C102.1 96.396 102.218 96.4606 102.327 96.5373L102.251 96.7015C101.996 96.6611 101.76 96.6033 101.526 96.5898C101.291 96.5696 101.067 96.5871 100.85 96.6275C100.629 96.6638 100.434 96.7715 100.24 96.8913C100.049 97.0151 99.873 97.1846 99.7143 97.3623L99.5503 97.2856Z" fill="#102048"/>
<path d="M86.497 103.056C86.337 102.811 86.1554 102.601 85.9507 102.424C85.7446 102.247 85.5182 102.103 85.2796 102.012C85.041 101.92 84.7956 101.88 84.5583 101.915C84.3211 101.954 84.0933 102.078 83.8697 102.266L83.688 102.142C83.8086 101.838 84.0757 101.558 84.4296 101.44C84.7807 101.317 85.1671 101.362 85.4884 101.491C85.8124 101.621 86.0903 101.835 86.3018 102.094C86.5133 102.351 86.6651 102.66 86.7072 102.983L86.497 103.056Z" fill="#E28B6D"/>
<path d="M88.2744 179.561L91.234 179.118C92.2169 178.956 93.2038 178.817 94.1854 178.641L97.1368 178.15C98.1224 177.991 99.1066 177.825 100.096 177.683L100.145 177.897C99.1826 178.185 98.2078 178.413 97.2303 178.631C96.2501 178.839 95.2659 179.024 94.2775 179.19C93.2865 179.338 92.2955 179.49 91.2963 179.589C90.2985 179.692 89.2966 179.766 88.292 179.782L88.2744 179.561Z" fill="#1F3C88"/>
<path d="M129.114 49.2993C120.597 49.2993 113.692 56.1513 113.692 64.6029C113.692 67.9785 114.796 71.0957 116.661 73.6264V79.8985L120.832 77.5091C123.224 79.0254 126.065 79.9066 129.115 79.9066C137.632 79.9066 144.536 73.0546 144.536 64.6029C144.535 56.1513 137.632 49.2993 129.114 49.2993Z" fill="#99A1D2"/>
<path d="M122.022 66.3343C122.985 66.3343 123.765 65.5597 123.765 64.6042C123.765 63.6486 122.985 62.874 122.022 62.874C121.059 62.874 120.278 63.6486 120.278 64.6042C120.278 65.5597 121.059 66.3343 122.022 66.3343Z" fill="white"/>
<path d="M129.114 66.3343C130.076 66.3343 130.857 65.5597 130.857 64.6042C130.857 63.6486 130.076 62.874 129.114 62.874C128.151 62.874 127.37 63.6486 127.37 64.6042C127.37 65.5597 128.151 66.3343 129.114 66.3343Z" fill="white"/>
<path d="M136.205 66.3343C137.168 66.3343 137.949 65.5597 137.949 64.6042C137.949 63.6486 137.168 62.874 136.205 62.874C135.242 62.874 134.462 63.6486 134.462 64.6042C134.462 65.5597 135.242 66.3343 136.205 66.3343Z" fill="white"/>
<path d="M278.662 99.9394L275.877 102.726L261.694 99.0784C258.169 96.3567 256.01 91.5954 257.125 87.7463C258.559 82.7967 264.328 79.1696 268.181 81.3773C268.181 81.3773 265.473 83.2797 265.856 84.9385C268.613 81.8374 276.215 83.0052 279.89 87.1248C281.784 89.2464 281.586 94.297 278.662 99.9394Z" fill="#102048"/>
<path d="M280.277 116.137L267.913 118.454L264.891 103.967L275.235 103.672C275.273 103.722 280.277 116.137 280.277 116.137Z" fill="#E28B6D"/>
<path d="M266.741 110.275C273.021 110.911 276.463 103.942 276.463 103.942L276.512 100.351L276.519 99.9987L276.601 93.7804L271.298 88.6895L261.478 93.1292C261.474 93.1359 261.48 93.1346 261.48 93.1346C261.184 94.3441 260.954 95.5737 260.796 96.79C260.716 97.4129 260.654 98.0371 260.615 98.6466C260.22 104.616 262.704 109.866 266.741 110.275Z" fill="#F9B384"/>
<path d="M260.201 96.0569C261.697 92.5037 264.962 90.6444 267.69 92.6342C271.639 95.516 273.68 93.3042 274.081 93.6944C276.887 96.4201 276.521 100 276.521 100L278.318 98.9521L278.684 97.3296L278.716 89.8816L274.139 86.2141L269.12 85.2764L263.222 87.3563C262.243 88.5927 260.093 90.8018 260.093 90.8018C259.569 92.4284 260.201 96.0569 260.201 96.0569Z" fill="#102048"/>
<path d="M270.835 101.725C272.26 101.329 274.299 100.02 275.495 99.2238C275.959 98.9143 276.59 99.1188 276.783 99.6395L277.788 102.357L276.593 104.027C276.593 104.027 275.03 106.598 272.432 108.401C270.662 106.813 270.033 104.26 270.544 102.018C270.576 101.871 270.692 101.764 270.835 101.725Z" stroke="white" stroke-width="4.7054" stroke-miterlimit="10"/>
<path d="M260.589 100.633C263.009 103.398 267.129 102.928 270.529 101.783C270.624 101.751 270.716 101.832 270.694 101.928C270.171 104.181 270.658 106.809 272.431 108.4C270.536 109.714 268.082 110.656 265.299 109.819C260.573 108.401 260.589 100.633 260.589 100.633Z" fill="white" stroke="white" stroke-width="4.7054" stroke-miterlimit="10"/>
<path d="M274.793 100.947C275.849 98.5298 278.823 97.1172 279.909 99.4662C280.997 101.815 279.729 105.06 275.387 104.6L274.793 100.947Z" fill="#F9B384"/>
<path d="M266.944 99.8395C266.909 100.364 267.195 100.812 267.584 100.838C267.973 100.864 268.317 100.46 268.354 99.9337C268.389 99.4089 268.103 98.9608 267.714 98.9352C267.325 98.9097 266.98 99.3147 266.944 99.8395Z" fill="#102048"/>
<path d="M262.449 99.3251C262.461 99.8337 262.775 100.239 263.151 100.229C263.528 100.221 263.823 99.8014 263.811 99.2941C263.799 98.7854 263.484 98.3804 263.107 98.3898C262.732 98.3979 262.436 98.8164 262.449 99.3251Z" fill="#102048"/>
<path d="M269.89 99.2745C269.704 99 269.485 98.7362 269.237 98.5424C268.983 98.3527 268.712 98.2154 268.414 98.163C268.116 98.1159 267.802 98.136 267.481 98.1953C267.321 98.2302 267.161 98.28 266.996 98.3191C266.833 98.3715 266.673 98.4348 266.498 98.4792L266.386 98.2908C266.527 98.1724 266.681 98.0728 266.833 97.9624C267 97.8777 267.167 97.7875 267.347 97.7229C267.71 97.5978 268.116 97.5453 268.521 97.6153C268.924 97.6946 269.299 97.9059 269.565 98.1979C269.835 98.4873 270.018 98.825 270.099 99.2018L269.89 99.2745Z" fill="#102048"/>
<path d="M264.272 98.0088C264.085 97.8622 263.881 97.7276 263.67 97.6388C263.458 97.5554 263.246 97.4841 263.022 97.4868C262.801 97.4841 262.579 97.5083 262.351 97.5689C262.122 97.6227 261.9 97.7209 261.657 97.8057L261.553 97.6577C261.646 97.5622 261.751 97.4774 261.854 97.3899C261.972 97.324 262.084 97.2433 262.213 97.1881C262.465 97.0697 262.757 97.0159 263.047 97.028C263.336 97.0509 263.624 97.137 263.86 97.2958C264.099 97.4505 264.293 97.6523 264.42 97.9039L264.272 98.0088Z" fill="#102048"/>
<path d="M276.501 100.956C276.552 100.688 276.657 100.436 276.797 100.199C276.932 99.9585 277.116 99.7392 277.36 99.5575C277.596 99.3839 277.958 99.2386 278.307 99.357C278.648 99.4674 278.837 99.7405 278.941 99.9922L278.761 100.12C278.56 99.9639 278.358 99.8536 278.192 99.8374C278.027 99.8186 277.862 99.894 277.687 100.014C277.335 100.263 277.03 100.658 276.702 101.05L276.501 100.956Z" fill="#E28B6D"/>
<path d="M236.951 144.735L220.805 143.13L213.873 150.346C212.975 151.183 213.628 152 214.468 151.919L223.431 149.358L233.39 150.412L236.951 144.735Z" fill="#E28B6D"/>
<path d="M289.728 206.342C289.728 206.342 284.01 215.157 274.208 215.666L276.605 203.485L289.728 206.342Z" fill="#102048"/>
<path d="M265.625 117.027C258.258 122.431 253.85 132.43 247.783 135.925C245.12 137.459 229.456 142.23 229.456 142.23L230.318 149.892L256.398 139.513L266.109 127.198L265.625 117.027Z" fill="#102048"/>
<path d="M226.723 209.98C226.673 209.866 232.669 215.81 244.745 219.254L240.855 207.865L226.723 209.98Z" fill="#102048"/>
<path d="M232.9 206.996L242.841 211.508L236.631 221.378L227.626 218.199L232.9 206.996Z" fill="#F9B384"/>
<path d="M234.978 231.782L214.925 225.55C214.41 225.39 214.421 224.662 214.942 224.518L225.665 221.549L227.637 218.164L236.66 221.285C236.655 224.396 236.216 227.492 235.353 230.482L234.978 231.782Z" fill="#FC6B58"/>
<path d="M226.723 209.98L243.202 179.314C248.135 170.01 250.862 164.019 259.369 160.967C265.746 158.677 277.62 158.304 285.366 158.454L285.66 172.836L263.862 186.549L244.746 219.252C239.579 214.357 233.502 211.807 226.723 209.98Z" fill="#102048"/>
<path d="M310.946 182.026V229.36" stroke="#F8FAFB" stroke-width="4.99957" stroke-miterlimit="10"/>
<path d="M304.1 154.356C310.692 154.356 313.892 136.228 322.438 138.804C345.572 145.78 328.582 206.87 282.037 179.462L304.1 154.356Z" fill="#F8FAFB"/>
<path d="M321.753 231.886C321.753 229.098 316.914 226.838 310.947 226.838C304.979 226.838 300.14 229.098 300.14 231.886H321.753Z" fill="#1F3C88"/>
<path d="M273.793 206.976L282.038 201.043L287.793 211.078L280.348 217.029L273.793 206.976Z" fill="#F9B384"/>
<path d="M295.861 217.922L279.971 231.652C279.577 231.992 278.978 231.614 279.121 231.115L282.2 220.439L280.327 217.002L287.729 211.005C290.397 212.639 292.825 214.63 294.941 216.925L295.861 217.922Z" fill="#FC6B58"/>
<path d="M308.684 157.695L271.734 158.521C270.5 153.095 268.445 148.462 266.506 144.944C265.522 143.164 264.566 141.668 263.756 140.493L272.069 131.246L273.968 129.139L261.272 119.62C265.673 113.23 270.376 111.23 277.135 112.684C299.643 117.526 307.373 147.653 308.684 157.695Z" fill="#708CD5"/>
<path d="M236.326 148.408L223.802 145.569L213.844 150.884C213.173 151.414 213.712 152.004 214.554 151.925H224.339L233.34 153.334L236.326 148.408Z" fill="#F9B384"/>
<path d="M208.151 154.147H224.338V151.925H208.151V154.147Z" fill="white"/>
<path d="M207.164 154.147H210.504L197.698 122.637H194.357L207.164 154.147Z" fill="#102048"/>
<path d="M272.071 131.245C271.341 134.709 269.847 140.147 266.507 144.943C265.522 143.163 264.567 141.667 263.756 140.493L272.071 131.245Z" fill="#1F3C88"/>
<path d="M229.655 144.01C228.36 147.544 228.908 150.874 230.797 154.147L251.713 150.902C254.604 150.486 257.271 149.047 259.271 146.823L264.646 140.843L273.972 129.137L261.273 119.617C255.975 127.308 251.404 137.506 251.404 137.506L229.655 144.01Z" fill="#708CD5"/>
<path d="M302.78 176.528C297.701 180.457 283.594 180.043 276.735 179.578L289.728 206.344C279.181 208.413 274.208 215.667 274.208 215.667C274.208 215.667 241.966 182.026 250.582 167.838C260.457 151.575 308.683 157.695 308.683 157.695C309.56 161.811 309.011 171.706 302.78 176.528Z" fill="#1F3C88"/>
<path d="M285.658 179.975C284.141 180.041 282.624 180.026 281.11 179.991C279.594 179.961 278.081 179.868 276.568 179.79C275.057 179.695 273.546 179.576 272.037 179.443C270.53 179.299 269.024 179.146 267.521 178.937L267.542 178.719C269.055 178.78 270.565 178.869 272.075 178.955L276.603 179.236L281.13 179.519C282.639 179.606 284.148 179.688 285.658 179.757V179.975Z" fill="#708CD5"/>
<path d="M247.706 98.2146C249.026 95.361 249.481 92.0857 248.804 88.7788C247.107 80.4991 238.968 75.1725 230.624 76.882C222.281 78.5916 216.893 86.6901 218.589 94.9698C220.286 103.25 228.425 108.576 236.768 106.867C239.755 106.255 242.362 104.82 244.402 102.855L248.967 104.359L247.708 98.2143L247.706 98.2146Z" fill="#D3DFFF"/>
<path d="M241.059 92.1267C241.994 91.8962 242.565 90.9574 242.336 90.0297C242.107 89.102 241.163 88.5368 240.228 88.7673C239.293 88.9977 238.722 89.9366 238.951 90.8643C239.18 91.792 240.124 92.3572 241.059 92.1267Z" fill="white"/>
<path d="M234.044 93.57C234.988 93.3768 235.597 92.4613 235.405 91.5251C235.213 90.589 234.293 89.9868 233.349 90.18C232.406 90.3732 231.797 91.2887 231.989 92.2248C232.181 93.1609 233.101 93.7632 234.044 93.57Z" fill="white"/>
<path d="M227.097 94.9938C228.04 94.8005 228.649 93.885 228.458 92.9489C228.266 92.0128 227.345 91.4105 226.402 91.6037C225.459 91.797 224.85 92.7125 225.042 93.6486C225.234 94.5848 226.154 95.187 227.097 94.9938Z" fill="white"/>
</svg>
