<svg width="24" height="24" viewBox="0 0 24 24" fill="none" xmlns="http://www.w3.org/2000/svg">
<path d="M10.3127 15.9597C10.6803 15.5922 10.6803 14.9962 10.3127 14.6287C9.94516 14.2611 9.34924 14.2611 8.98169 14.6287L5.21698 18.3934C4.84943 18.7609 4.84943 19.3569 5.21698 19.7244C5.58454 20.092 6.18046 20.092 6.54801 19.7244L10.3127 15.9597Z" fill="#98A9BC"/>
<path d="M13.4118 15.2941C10.8128 15.2941 8.70588 13.1872 8.70588 10.5882C8.70588 7.98925 10.8128 5.88235 13.4118 5.88235C16.0108 5.88235 18.1176 7.98925 18.1176 10.5882C18.1176 13.1872 16.0108 15.2941 13.4118 15.2941ZM13.4118 17.1765C17.0503 17.1765 20 14.2268 20 10.5882C20 6.94965 17.0503 4 13.4118 4C9.77318 4 6.82353 6.94965 6.82353 10.5882C6.82353 14.2268 9.77318 17.1765 13.4118 17.1765Z" fill="#98A9BC"/>
</svg>
