<svg width="24" height="24" viewBox="0 0 24 24" fill="none" xmlns="http://www.w3.org/2000/svg">
<path fill-rule="evenodd" clip-rule="evenodd" d="M11.0917 0.0459387C9.75348 0.270657 8.3392 0.888234 6.7756 1.93057C6.24505 2.28426 5.44911 2.891 5.0265 3.26397L4.78729 3.47508L5.93392 5.3675L7.08054 7.25992L7.08069 7.85395C7.08106 9.56697 7.51215 10.7504 8.5201 11.8054L8.86614 12.1677L8.52461 12.2708C8.33672 12.3275 7.9508 12.4683 7.66697 12.5838C3.96901 14.0877 1.27286 17.5154 0.630135 21.53C0.527018 22.1742 0.454254 23.2756 0.48944 23.6599L0.520591 24H12.1929H23.8651L23.897 23.7877C23.9598 23.3688 23.8352 21.9001 23.6622 21.021C23.3144 19.253 22.6127 17.7073 21.4696 16.1907C21.0616 15.6494 19.8554 14.4626 19.2712 14.0275C18.3227 13.3212 17.1634 12.7103 16.063 12.3371L15.5454 12.1615L15.8647 11.8344C16.6073 11.0741 17.1078 10.0436 17.2575 8.96712C17.2852 8.76816 17.3078 8.32619 17.3078 7.98498V7.36454L17.4992 7.17909C17.7477 6.93842 18.1584 6.31911 18.3068 5.96153C18.7231 4.95785 18.6498 3.69928 18.1244 2.83447C17.5316 1.85865 16.4568 1.29357 15.1935 1.29357H14.7641L14.3903 0.941951C13.982 0.557818 13.3987 0.231765 12.8744 0.0944948C12.4868 -0.00698041 11.5576 -0.032314 11.0917 0.0459387ZM12.6788 1.57046C13.147 1.73475 13.4782 2.02651 13.8822 2.63062C13.9684 2.75964 14.0411 2.86895 14.0437 2.87355C14.0463 2.87814 14.1959 2.84999 14.3762 2.81096C14.8391 2.71085 15.6421 2.74843 16.0075 2.88729C16.7304 3.16202 17.1312 3.77359 17.128 4.59726C17.1271 4.81753 17.0924 5.03432 17.0292 5.21456C16.9295 5.49867 16.5687 6.07881 16.4917 6.07881C16.4682 6.07881 16.0338 5.74361 15.5265 5.33396C15.0192 4.9243 14.5632 4.56447 14.5133 4.53431C14.4381 4.48885 13.8907 4.62771 11.3036 5.34859C8.8675 6.02735 8.17299 6.20501 8.13203 6.15997C8.05692 6.07731 6.70514 3.83228 6.70565 3.791C6.70622 3.74066 7.63329 3.10066 8.2054 2.7556C9.3091 2.08994 10.3073 1.66935 11.1855 1.4999C11.6305 1.41405 12.3269 1.44693 12.6788 1.57046ZM14.9901 6.77079L15.8613 7.46278L15.8374 8.14303C15.8085 8.96675 15.7095 9.39174 15.4005 10.0195C15.2187 10.3886 15.112 10.5341 14.7783 10.8679C14.4445 11.2016 14.299 11.3083 13.9299 11.4901C13.3132 11.7937 12.8753 11.8962 12.1942 11.8962C10.7504 11.8962 9.55207 11.1757 8.9557 9.94923C8.71681 9.45789 8.58972 8.90895 8.55172 8.20435L8.52085 7.63228L8.63659 7.60324C8.70021 7.58729 9.94367 7.24031 11.3998 6.83225C12.8559 6.42419 14.0634 6.08777 14.0831 6.08458C14.1027 6.08139 14.5109 6.39018 14.9901 6.77079ZM14.2284 13.503C14.1003 13.7146 12.2262 16.2592 12.1985 16.2592C12.1703 16.2592 10.6267 14.1697 10.2338 13.5999L10.1266 13.4443H12.1953C13.8379 13.4443 14.2566 13.4564 14.2284 13.503ZM9.59763 15.204C10.1449 15.9521 10.5942 16.5795 10.5959 16.5984C10.5976 16.6172 10.1505 16.6383 9.60218 16.6453L8.60525 16.6579V18.8394V21.021L12.2064 21.033L15.8075 21.045L15.7953 18.8515L15.7831 16.6579L14.7818 16.6345L13.7804 16.611L14.7988 15.2116C15.9631 13.6114 15.7684 13.7444 16.4795 14.063C17.6622 14.5929 18.6224 15.2736 19.5865 16.2659C21.1878 17.9138 22.1517 19.9872 22.3915 22.2994L22.417 22.5457H12.2014H1.98567L2.02287 22.1608C2.1935 20.3957 2.90017 18.6611 4.09188 17.0822C4.46138 16.5927 5.44939 15.6061 5.94428 15.2325C6.60751 14.7317 7.28589 14.3394 8.11265 13.9784C8.30618 13.8939 8.49557 13.829 8.53352 13.8343C8.57147 13.8395 9.05028 14.4559 9.59763 15.204ZM14.3417 18.8512L14.3288 19.5666H12.1942H10.0596L10.0466 18.8512L10.0337 18.1357H12.1942H14.3547L14.3417 18.8512Z" fill="#303C6C"/>
</svg>
