<svg width="454" height="82" viewBox="0 0 454 82" fill="none" xmlns="http://www.w3.org/2000/svg">
<g clip-path="url(#clip0_13_546)">
<path d="M46.632 3.66926L40.5742 6.06226L34.6 3.47219L40.6764 0L46.632 3.66926ZM20.3661 5.45228L16.8262 11.5239L23.3299 10.7544L27.3437 5.63058L20.3661 5.45228ZM5.50033 20.4672L5.43529 27.5148L10.6476 23.5827L11.6232 17.0888L5.50033 20.4672ZM0 40.9249L3.4377 47.0529L6.00205 41.0188L3.63282 34.9002L0 40.9249ZM5.39813 61.4296L11.4095 65.005L10.6476 58.483L5.57466 54.4289L5.39813 61.4296ZM20.2639 76.4445L27.2415 76.5008L23.3485 71.2362L16.9191 70.2978L20.2639 76.4445ZM40.5556 81.9718L46.6227 78.4997L40.6485 75.9096L34.5907 78.3026L40.5556 81.9718ZM60.8567 76.5196L64.3966 70.4479L57.9393 71.2174L53.8883 76.3788L60.8567 76.5196ZM75.7224 61.5047L75.7782 54.4571L70.5659 58.3891L69.6367 64.883L75.7224 61.5047ZM81.1949 41.0188L77.7572 34.8814L75.1928 40.9155L77.5621 47.0341L81.1949 41.0188ZM75.7875 20.5704L69.7761 16.995L70.538 23.564L75.6202 27.6649L75.7875 20.5704ZM60.9217 5.5555L53.9813 5.47105L57.8742 10.7356L64.3037 11.721L60.9217 5.5555ZM32.9369 10.2477L29.0254 14.0014L33.9961 14.8084L38.0935 11.8336L32.9369 10.2477ZM18.7123 18.2243L17.235 23.4607L21.9363 21.5839L24.0175 16.9574L18.7123 18.2243ZM10.3503 32.3008L11.6696 37.5372L14.8658 33.6333L14.3826 28.5752L10.3503 32.3008ZM10.0808 48.7233L13.7973 52.6647L14.5963 47.6441L11.6696 43.5056L10.0808 48.7233ZM17.9783 63.0813L23.2277 64.5921L21.3695 59.8437L16.8169 57.7416L17.9783 63.0813ZM31.9149 71.5271L37.1644 70.2227L33.2621 67.0133L28.2542 67.5107L31.9149 71.5271ZM48.1743 71.7993L52.0766 68.0456L47.1058 67.2385L43.0085 70.1946L48.1743 71.7993ZM62.4361 63.8132L63.9506 58.5862L59.2493 60.3974L57.1681 65.0238L62.4361 63.8132ZM70.7981 49.7368L69.5253 44.4347L66.3477 48.3761L66.8401 53.4342L70.7981 49.7368ZM71.0676 33.3143L67.3511 29.3635L66.5521 34.3841L69.4695 38.4756L71.0676 33.3143ZM63.1794 18.9375L58.0043 17.4079L59.7975 22.1563L64.378 24.2584L63.1794 18.9375ZM49.2428 10.4916L43.9933 11.7867L47.8863 15.0149L52.8942 14.5269L49.2428 10.4916ZM29.3041 20.9739L27.2972 24.3992L30.9301 23.9769L33.2249 21.1053L29.3041 20.9739ZM20.9421 29.3541L20.8864 33.3236L23.8224 31.1183L24.3891 27.4772L20.9421 29.3541ZM17.7739 40.8592L19.6971 44.322L21.1465 40.9343L19.8272 37.5372L17.7739 40.8592ZM20.7656 52.4019L24.1568 54.4289L23.7387 50.7597L20.8957 48.4417L20.7656 52.4019ZM29.0625 60.8478H32.9927L30.8093 57.8824L27.2043 57.3099L29.0625 60.8478ZM40.4534 64.0009L43.8818 62.0678L40.5278 60.5944L37.1644 61.9364L40.4534 64.0009ZM51.8815 60.9979L53.8883 57.6196L50.2555 58.0419L47.9606 60.9229L51.8815 60.9979ZM60.2435 52.6178V48.6576L57.3075 50.8535L56.7407 54.504L60.2435 52.6178ZM63.3653 41.1126L61.4513 37.6592L59.9926 41.0469L61.3212 44.5097L63.3653 41.1126ZM60.3921 29.5981L57.0473 27.5711L57.4654 31.2403L60.3178 33.5583L60.3921 29.5981ZM52.0952 21.1522L48.1743 21.0959L50.3484 24.0613L53.9627 24.6338L52.0952 21.1522ZM40.7322 17.9522L37.313 19.8947L40.6671 21.3587L44.0677 20.0261L40.7322 17.9522Z" fill="url(#paint0_linear_13_546)"/>
<path d="M442.516 32.6292H428.468V59.7967H419.456V32.6292H405.361V24.4648H442.526L442.516 32.6292Z" fill="#01000B"/>
<path d="M389.101 24.4463H398.039V59.8064H389.101V45.5141H369.785V59.8064H360.847V24.4463H369.785V38.1943H389.101V24.4463Z" fill="#01000B"/>
<path d="M335.009 60.4161C332.038 60.4516 329.081 59.9951 326.256 59.0648C323.783 58.2472 321.48 56.9745 319.465 55.3111C317.601 53.7418 316.093 51.7864 315.042 49.5773C313.98 47.3175 313.44 44.8435 313.463 42.342V42.2293C313.449 39.7799 314 37.3609 315.07 35.163C316.165 32.9506 317.692 30.9844 319.558 29.3822C321.564 27.6645 323.866 26.3348 326.349 25.4596C329.114 24.4845 332.025 24.0018 334.953 24.0332C336.628 24.0207 338.301 24.1273 339.961 24.3522C341.378 24.5613 342.779 24.875 344.151 25.2907C345.405 25.6826 346.621 26.1883 347.784 26.8015C348.922 27.4146 350.018 28.1044 351.064 28.8661L345.378 34.7219C344.63 34.1688 343.847 33.6642 343.036 33.211C342.256 32.7812 341.446 32.4111 340.611 32.1037C339.722 31.7918 338.808 31.5564 337.88 31.3999C336.817 31.2238 335.742 31.1391 334.665 31.1465C333.089 31.1356 331.526 31.4385 330.066 32.038C328.697 32.5951 327.438 33.3961 326.349 34.4028C325.292 35.3798 324.44 36.5603 323.841 37.875C323.223 39.2085 322.906 40.6635 322.912 42.1355V42.2293C322.891 43.7392 323.191 45.2361 323.792 46.6187C324.393 48.0013 325.281 49.2375 326.396 50.2435C327.543 51.2687 328.874 52.0619 330.317 52.5802C331.925 53.1527 333.62 53.4354 335.325 53.4154C338.279 53.5102 341.201 52.7795 343.77 51.304V46.9215H334.693V40.2211H352.495V54.8419C350.175 56.4978 347.643 57.8269 344.969 58.7927C341.769 59.9215 338.397 60.4711 335.009 60.4161Z" fill="#01000B"/>
<path d="M296.005 59.8064V24.4463H305.147V59.8064H296.005Z" fill="#01000B"/>
<path d="M260.253 59.29C257.679 58.7056 255.218 57.6974 252.969 56.3058L256.193 50.1684C258.141 51.362 260.25 52.263 262.455 52.843C264.818 53.5038 267.259 53.8416 269.711 53.8471C271.752 53.9687 273.792 53.6155 275.676 52.8148C276.226 52.5948 276.7 52.219 277.043 51.7329C277.386 51.2467 277.582 50.6709 277.609 50.0746C277.608 49.6582 277.502 49.2488 277.303 48.8845C277.103 48.5202 276.815 48.213 276.466 47.9913C275.575 47.3756 274.585 46.9215 273.539 46.6493C272.35 46.3178 270.74 45.9518 268.708 45.5514C266.122 45.0609 263.564 44.4344 261.043 43.6745C259.119 43.0764 257.365 42.0245 255.923 40.6059C255.203 39.8667 254.642 38.9848 254.276 38.0157C253.909 37.0466 253.746 36.0113 253.796 34.9753C253.787 32.9555 254.466 30.9943 255.719 29.4198C257.263 27.5858 259.279 26.2185 261.544 25.469C264.605 24.4294 267.822 23.9402 271.049 24.0238C273.625 24.0186 276.194 24.2859 278.714 24.8215C280.984 25.2834 283.178 26.0602 285.237 27.13L282.31 33.3236C278.783 31.5399 274.9 30.593 270.956 30.5553C268.299 30.5553 266.339 30.9244 265.075 31.6626C264.528 31.9247 264.064 32.3358 263.736 32.8498C263.407 33.3638 263.228 33.9602 263.217 34.5718C263.217 35.7823 263.951 36.6832 265.419 37.265C267.596 38.0453 269.838 38.6264 272.118 39.0011C274.702 39.4967 277.261 40.1231 279.783 40.878C281.698 41.4706 283.451 42.5051 284.902 43.8997C285.624 44.628 286.187 45.5014 286.553 46.4633C286.92 47.4251 287.082 48.4541 287.03 49.4834C287.031 51.4912 286.337 53.4363 285.07 54.9826C283.51 56.8208 281.478 58.188 279.198 58.9334C276.126 59.9785 272.896 60.4708 269.656 60.3879C266.489 60.4073 263.332 60.0386 260.253 59.29Z" fill="#01000B"/>
<path d="M244.291 24.4648V59.7967H235.269L216.101 37.2744V59.7967H207.34V24.4648H216.306L235.483 46.9872V24.4648H244.291Z" fill="#01000B"/>
<path d="M186.937 24.4648H195.902V59.7967H186.937V24.4648Z" fill="#01000B"/>
<path d="M170.956 49.3991C175.276 47.5222 177.673 43.2242 177.673 37.6312C177.673 28.4721 171.579 24.4932 162.808 24.4932H141.615V59.7875H150.367V32.6293H163.114C166.589 32.6293 168.605 34.8534 168.605 37.9408C168.605 41.0283 166.589 42.7925 163.114 42.7925L155.728 43.0741L168.559 59.7875H179.123L170.956 49.3991Z" fill="#01000B"/>
<path d="M134.293 32.6292H120.245V59.7967H111.233V32.6292H97.1382V24.4648H134.303L134.293 32.6292Z" fill="#01000B"/>
<path d="M445.043 52.4019V53.4904H442.646V59.8248H441.504V53.4904H439.097V52.4019H445.043Z" fill="#01000B"/>
<path d="M447.728 52.4019L450.06 58.0324L452.402 52.4019H453.981V59.8248H452.838V54.1943L450.618 59.3932H449.596L447.366 54.1567V59.7873H446.214V52.4019H447.728Z" fill="#01000B"/>
</g>
<defs>
<linearGradient id="paint0_linear_13_546" x1="40.5928" y1="82" x2="40.5928" y2="0" gradientUnits="userSpaceOnUse">
<stop stop-color="#FFDD00"/>
<stop offset="1" stop-color="#D75C1E"/>
</linearGradient>
<clipPath id="clip0_13_546">
<rect width="454" height="82" fill="white"/>
</clipPath>
</defs>
</svg>
